<?xml version="1.0" encoding="UTF-8" standalone="no"?>
<!DOCTYPE svg PUBLIC "-//W3C//DTD SVG 20010904//EN" "http://www.w3.org/TR/2001/REC-SVG-20010904/DTD/svg10.dtd">

<svg xmlns="http://www.w3.org/2000/svg" viewBox="0 0 1024 1024">
  <path id="Selection" fill="currentColor" stroke="currentColor" stroke-width="0" d="M 378.00,720.00
           C 378.00,720.00 378.00,186.00 378.00,186.00
             378.00,184.00 377.74,180.33 378.99,178.72
             380.21,177.16 383.16,176.60 385.00,176.13
             385.00,176.13 400.00,172.65 400.00,172.65
             400.00,172.65 472.00,158.59 472.00,158.59
             472.00,158.59 523.00,152.91 523.00,152.91
             523.00,152.91 533.00,152.00 533.00,152.00
             533.00,152.00 551.00,151.00 551.00,151.00
             551.00,151.00 610.00,151.00 610.00,151.00
             610.00,151.00 632.00,152.85 632.00,152.85
             665.72,156.88 695.47,165.49 724.00,184.51
             736.36,192.75 744.72,200.29 754.96,211.00
             790.80,248.48 804.16,302.91 809.17,353.00
             809.17,353.00 811.00,378.00 811.00,378.00
             811.00,378.00 812.00,394.00 812.00,394.00
             812.00,394.00 812.00,720.00 812.00,720.00
             812.00,720.00 713.00,720.00 713.00,720.00
             713.00,720.00 713.00,530.00 713.00,530.00
             713.00,530.00 713.00,435.00 713.00,435.00
             713.00,435.00 712.00,420.00 712.00,420.00
             711.93,377.65 708.48,329.85 687.69,292.00
             663.18,247.38 617.40,238.93 571.00,239.00
             571.00,239.00 535.00,241.42 535.00,241.42
             535.00,241.42 496.00,246.41 496.00,246.41
             492.81,246.95 482.51,248.39 480.31,249.98
             477.54,251.99 478.01,255.96 478.00,259.00
             478.00,259.00 478.00,720.00 478.00,720.00
             478.00,720.00 378.00,720.00 378.00,720.00 Z
           M 212.00,304.00
           C 212.00,304.00 311.00,304.00 311.00,304.00
             311.00,304.00 311.00,494.00 311.00,494.00
             311.00,494.00 311.00,589.00 311.00,589.00
             311.00,589.00 312.00,604.00 312.00,604.00
             312.07,646.35 315.52,694.15 336.31,732.00
             360.82,776.62 406.60,785.07 453.00,785.00
             453.00,785.00 489.00,782.58 489.00,782.58
             489.00,782.58 528.00,777.59 528.00,777.59
             531.19,777.05 541.49,775.61 543.69,774.02
             546.46,772.01 545.99,768.04 546.00,765.00
             546.00,765.00 546.00,304.00 546.00,304.00
             546.00,304.00 646.00,304.00 646.00,304.00
             646.00,304.00 646.00,838.00 646.00,838.00
             646.00,840.00 646.26,843.67 645.01,845.28
             643.79,846.84 640.84,847.40 639.00,847.87
             639.00,847.87 624.00,851.35 624.00,851.35
             624.00,851.35 552.00,865.41 552.00,865.41
             552.00,865.41 501.00,871.09 501.00,871.09
             501.00,871.09 491.00,872.00 491.00,872.00
             491.00,872.00 473.00,873.00 473.00,873.00
             473.00,873.00 414.00,873.00 414.00,873.00
             414.00,873.00 392.00,871.15 392.00,871.15
             358.28,867.12 328.53,858.51 300.00,839.49
             287.64,831.25 279.28,823.71 269.04,813.00
             233.20,775.52 219.84,721.09 214.83,671.00
             214.83,671.00 213.00,646.00 213.00,646.00
             213.00,646.00 212.00,630.00 212.00,630.00
             212.00,630.00 212.00,304.00 212.00,304.00 Z" />
</svg>
